<?xml version="1.0" encoding="UTF-8" standalone="no"?>
<svg xmlns="http://www.w3.org/2000/svg" viewBox="0 0 54.848 36.036" width="120" height="78.8">
  <path fill="#0071c5" d="M54.848 0H0v36.036h54.848V0z"/>
  <path fill="#fff" d="M16.572 28.26h-2.82V7.776h2.82zm33.945-2.32c0 .752-.612 1.364-1.364 1.364h-2.647v-1.482h2.435V7.82H16.22V7.01c0-.752.612-1.364 1.364-1.364h32.57c.752 0 1.364.612 1.364 1.364v18.93zm-8.565 2.32h-2.82v-1.987c-1.04 1.482-2.253 2.228-3.995 2.228-2.864 0-4.57-1.94-4.57-5.141V15.1h2.845v7.298c0 2.34.988 3.242 2.669 3.242 1.812 0 3.05-1.458 3.05-3.592V15.1h2.82v13.16zm-13.854.24c-1.964 0-3.476-.447-5.007-1.48l.964-2.126c1.34.893 2.604 1.318 3.994 1.318 1.636 0 2.476-.635 2.476-1.723 0-.94-.776-1.435-2.387-1.647l-1.317-.188c-2.822-.447-4.189-1.777-4.189-3.947 0-2.552 2.116-4.282 5.336-4.282 1.717 0 3.287.353 4.556 1.035l-.94 2.058c-1.176-.588-2.35-.872-3.616-.872-1.6 0-2.38.66-2.38 1.577 0 .96.753 1.458 2.308 1.67l1.316.188c2.916.447 4.282 1.824 4.282 3.97 0 2.675-2.16 4.45-5.396 4.45zM8.756 17.484c0-6.806 5.518-12.324 12.324-12.324v2.435c-5.462 0-9.89 4.43-9.89 9.89s4.428 9.89 9.89 9.89v2.435c-6.806 0-12.324-5.518-12.324-12.324z"/>
</svg>
